<svg xmlns="http://www.w3.org/2000/svg" viewBox="0 0 256 256"><defs><style>.a{fill:#fff;fill-rule:evenodd;}.b{fill:none;}</style></defs><title>rbs-logo-256</title><path class="a" d="M61.21,168.68c-10,0-18.89.11-27.77,0-7.67-.12-13.67-3.43-17-10.5-3.12-6.65-2.39-13.13,2-19.09A17.85,17.85,0,0,1,33,131.85c12.08-.15,24.18-.24,36.26,0,8.3.18,14.52,4.06,17.55,12.22,4.57,12.08,13.18,20.36,25,25.36,8.09,3.44,12.13,9.36,12.2,18,.09,11.68.23,23.31,0,34.94-.3,13.36-11.08,21.46-23.71,18.18C92,238.46,87.64,232,87.75,222.29c.1-8.73.22-17.51.31-26.29a4.48,4.48,0,0,0-.12-1.08c-1.75.15-2.54,1.64-3.55,2.65-12.86,12.8-25.53,25.78-38.54,38.37-10.69,10.38-27.44,5.45-30.72-8.83-1.47-6.49.36-12.16,5.1-16.93q18.55-18.65,37.06-37.36c1.1-1.11,2.13-2.24,3.92-4.14" transform="translate(0 0)"/><path class="a" d="M194.54,168.3c.51,1.73,2,2.53,3,3.58,12.67,12.74,25.55,25.33,38.11,38.21,10.32,10.55,5.91,27.15-8,30.74-6.79,1.75-12.77-.11-17.73-5.06Q191.1,217,172.31,198.22c-1-1-1.78-2.26-2.61-3.26-1.9,1.09-1.24,2.39-1.27,3.38,0,8.34.11,16.69-.05,25-.13,9.76-7.19,17.44-16.23,18-10.63.65-19.2-5.59-20.05-15.76a267.63,267.63,0,0,1,0-41.42c.53-7.14,4.79-12.11,11.65-14.67,12-4.47,20.28-13,25.23-24.55,3.83-9.15,10.49-13.19,20.14-13.14,11.08.12,22.16-.12,33.24.12,8.36.07,14.56,4,17.79,11.9A18,18,0,0,1,236,163.32c-4.12,4-9.2,5.05-14.7,5-8.87-.06-17.7,0-26.72,0" transform="translate(0 0)"/><path class="a" d="M61.09,88.17c-.53-2-2-2.8-3-3.83C45.25,71.45,32.33,58.75,19.64,45.81c-9.74-9.93-5.56-26.4,7.66-30.12,7-2,13.29-.4,18.57,4.92,12.46,12.59,25,25,37.55,37.58,1,1,1.82,2.16,2.72,3.28.38-.19.72-.33,1.06-.48V35.39A25,25,0,0,1,88,27.76,18.14,18.14,0,0,1,108.4,15a17.81,17.81,0,0,1,15.06,17.39c.18,12.66.3,25.3,0,38-.2,7.67-3.93,13.48-11.34,16.31C100,91.27,91.62,99.83,86.57,111.53c-3.8,8.69-10.12,12.91-19.45,13H34.3c-8.34,0-15.21-3.11-18.39-11-4.21-10.56-.12-23.26,13.35-25.09a44.81,44.81,0,0,1,6.43-.43c8.08.09,16.14.26,24.18.45a7.81,7.81,0,0,0,1.22-.19" transform="translate(0 0)"/><path class="a" d="M168.52,62.12c14.44-14.53,28-28.35,41.81-42,9.72-9.64,25.45-6.3,30,6.29,2.77,7.61,1,14.44-4.7,20.08Q217.1,64.89,198.51,83.25A28.89,28.89,0,0,1,194.89,86c1.27,2.21,2.56,1.51,3.57,1.51,8.48.08,17-.06,25.45.1a18.19,18.19,0,0,1-.2,36.38c-12.37.12-24.73.06-37.1,0-8-.09-14.13-4.29-16.91-11.72-4.53-12-13-20.32-24.49-25.33-9-4-13.33-10.27-13.14-20.1.19-11,0-21.88.07-32.83,0-11.16,7.73-19.2,18.28-19.29,10.76,0,18.1,7.75,18.1,19.21v28.2Z" transform="translate(0 0)"/><rect class="b" width="256" height="256"/></svg>